<?xml version="1.0" encoding="utf-8"?>
<!-- Generator: Adobe Illustrator 16.0.0, SVG Export Plug-In . SVG Version: 6.00 Build 0)  -->
<!DOCTYPE svg PUBLIC "-//W3C//DTD SVG 1.1//EN" "http://www.w3.org/Graphics/SVG/1.1/DTD/svg11.dtd">
<svg version="1.1" id="Layer_1" xmlns="http://www.w3.org/2000/svg" xmlns:xlink="http://www.w3.org/1999/xlink" x="0px" y="0px"
	 width="529.12px" height="600.52px" viewBox="42.08 18.6 529.12 600.52" enable-background="new 42.08 18.6 529.12 600.52"
	 xml:space="preserve">
<g>
	<path d="M357,248.1c-14.03,0-25.5-11.48-25.5-25.5v-204H67.58c-14.03,0-25.5,11.48-25.5,25.5v549.52c0,14.03,11.47,25.5,25.5,25.5
		H545.7c14.02,0,25.5-11.47,25.5-25.5V248.1H357z M277.95,447c0,20.4-5.1,36.97-16.58,47.17c-10.2,10.2-24.23,15.3-40.8,15.3
		c-20.4,0-39.53-7.65-54.83-24.22l20.4-28.05c10.2,11.47,21.68,16.58,33.15,16.58c5.1,0,10.2-2.55,14.03-6.38
		c3.82-3.83,6.38-10.2,6.38-19.12v-81.6h-52.28v-33.15h90.53V447z M428.4,495.45c-11.48,10.2-26.78,14.02-45.9,14.02
		c-28.05,0-52.28-10.2-75.22-30.6l22.95-28.05c19.12,16.58,35.7,24.22,52.28,24.22c7.65,0,12.75-1.27,16.58-5.1
		c3.83-2.55,6.38-7.65,6.38-12.75c0-5.1-2.55-8.92-6.38-12.75c-3.83-2.55-12.75-6.38-25.5-8.92c-20.4-5.1-35.7-11.48-44.62-19.12
		c-8.92-7.65-14.03-20.4-14.03-36.98c0-16.57,6.38-29.32,17.85-38.25c11.47-8.92,26.77-14.02,44.62-14.02
		c11.47,0,22.95,2.55,34.42,6.38c11.47,3.83,21.67,10.2,30.6,16.58l-19.12,28.05c-15.3-11.48-30.6-17.85-47.17-17.85
		c-6.38,0-11.47,1.28-15.3,5.1c-3.83,2.55-5.1,7.65-5.1,12.75s2.55,8.93,6.38,11.48c3.83,2.55,15.3,6.38,31.88,10.2
		c16.58,3.83,29.33,10.2,38.25,17.85c8.93,7.65,14.03,20.4,14.03,35.7C446.25,472.5,439.88,485.25,428.4,495.45z"/>
	<polygon points="527.85,198.38 381.22,58.12 381.22,198.38 	"/>
</g>
</svg>
