<?xml version="1.0" encoding="utf-8"?>
<!-- Generator: Adobe Illustrator 16.0.0, SVG Export Plug-In . SVG Version: 6.00 Build 0)  -->
<!DOCTYPE svg PUBLIC "-//W3C//DTD SVG 1.1//EN" "http://www.w3.org/Graphics/SVG/1.1/DTD/svg11.dtd">
<svg version="1.1" id="Layer_1" xmlns="http://www.w3.org/2000/svg" xmlns:xlink="http://www.w3.org/1999/xlink" x="0px" y="0px"
	 width="379.01px" height="497.91px" viewBox="120.28 74.55 379.01 497.91" enable-background="new 120.28 74.55 379.01 497.91"
	 xml:space="preserve">
<g>
	<path d="M379.05,256.74V86.79c0-6.76-5.48-12.24-12.24-12.24H245.32c-6.76,0-12.24,5.48-12.24,12.24V256.9
		c-21.16,45-111.24,237.81-112.71,262.83c-0.84,14.32,3.75,27.56,12.91,37.28c9.27,9.82,22.71,15.45,36.89,15.45h279.3
		c27,0,49.82-23.82,49.82-52.01C499.28,499.35,416.26,331.1,379.05,256.74z M449.46,547.98H170.17c-7.47,0-14.41-2.83-19.08-7.77
		c-4.56-4.83-6.73-11.42-6.29-18.99c1.54-15.86,58.64-143.93,111.58-256.37c0.77-1.63,1.16-3.42,1.16-5.21V99.03h97.01v160.61
		c0,1.9,0.44,3.78,1.3,5.48c56.2,112.2,116.99,240,118.94,255.33C474.8,535.11,462.96,547.98,449.46,547.98z"/>
	<path d="M265.71,302.55c-4.87,0-9.28,2.89-11.22,7.36l-80.72,185.67c-1.92,4.08-7.77,16.47-1.29,26.69
		c6.65,10.49,20.59,10.51,30.8,10.51c0.02,0,0.06,0,0.08,0l204.24-0.04c19.93,0,33.53-2.09,39.75-12.49
		c6.18-10.3,0.15-21.54-1.82-25.23c-9.25-17.29-85.31-183.65-86.07-185.33c-2-4.36-6.34-7.15-11.13-7.15L265.71,302.55
		L265.71,302.55z"/>
</g>
</svg>
