<svg viewBox="0 0 260 260" xmlns="http://www.w3.org/2000/svg"><path fill="none" d="M0 0h260v260H0z"/><circle cx="130.5" cy="141.02" r="87.22" fill="#00d4b0" stroke="#3f6873" stroke-width="3"/><circle cx="130.5" cy="141.02" r="87.22" fill="#00d4b0" stroke="#3f6873" stroke-width="3"/><path d="M141.62 180.55a48.62 48.62 0 0 1 44.03 28.02 86.83 86.83 0 0 1-55.15 19.67c-20.8 0-39.9-7.3-54.89-19.46a48.62 48.62 0 0 1 44.13-28.23h21.88z" fill="#fff"/><path d="M141.86 178.05a50.92 50.92 0 0 1 38.7 18.03 51.27 51.27 0 0 1 7.35 11.43l-.69 3a90.35 90.35 0 0 1-24.75 14.35 89.25 89.25 0 0 1-20.56 5.16 90.5 90.5 0 0 1-25.65-.4 89.16 89.16 0 0 1-42.22-18.9l-.7-3a51.3 51.3 0 0 1 31.17-27.37 50.81 50.81 0 0 1 14.99-2.3c7.45-.02 14.9-.02 22.36 0zm-22.12 5a45.87 45.87 0 0 0-34.17 15.18 46.4 46.4 0 0 0-6.8 9.77l-.03.07A84.82 84.82 0 0 0 105.56 222a85.52 85.52 0 0 0 35.26 3.11 84.24 84.24 0 0 0 41.51-17.1l.18-.14a46.4 46.4 0 0 0-26.24-22.44 45.78 45.78 0 0 0-14.22-2.38c-7.44-.05-14.87 0-22.31 0z" fill="#3f6873" fill-rule="nonzero"/><path d="M129.8 50.56a90.48 90.48 0 0 1 36.67 7.89 90.86 90.86 0 0 1 43.46 41.16 90.03 90.03 0 0 1 8.47 24.58 91.2 91.2 0 0 1-2.34 43.2 89.97 89.97 0 0 1-13.11 26.43 91.15 91.15 0 0 1-38.76 30.77 89.87 89.87 0 0 1-34.7 6.9 89.87 89.87 0 0 1-49.66-14.86 90.95 90.95 0 0 1-36.97-49.51 91.2 91.2 0 0 1-2.26-42.93 90.03 90.03 0 0 1 8.34-24.34 91 91 0 0 1 43.6-41.4 89.97 89.97 0 0 1 36.67-7.9h.58zm-.57 6.5a84.33 84.33 0 0 0-13.55 1.13 83.45 83.45 0 0 0-43.73 21.72 84.48 84.48 0 0 0-17.23 22.9 83.45 83.45 0 0 0-7.68 22.32 84.68 84.68 0 0 0 2.04 40.11 83.42 83.42 0 0 0 12.25 24.78A84.6 84.6 0 0 0 97.3 218.6a83.38 83.38 0 0 0 32.2 6.4 83.38 83.38 0 0 0 46.09-13.78 84.5 84.5 0 0 0 29.6-33.8 83.4 83.4 0 0 0 7.46-24.65 84.65 84.65 0 0 0-.69-27.62 83.47 83.47 0 0 0-7.8-22.55 84.49 84.49 0 0 0-40.35-38.21 83.45 83.45 0 0 0-34.04-7.32h-.54z" fill="#3f6873" fill-rule="nonzero"/><circle cx="209.5" cy="132.32" r="5.21" fill="#fff"/><circle cx="86.03" cy="169.41" r="3.51" fill="#fff"/><circle cx="189.09" cy="165.79" r="3.61" fill="#30a677"/><circle cx="63.83" cy="150.78" r="3.61" fill="#30a677"/><path d="M143.28 159.47a12.37 12.37 0 0 0-24.72 0v23.2a12.37 12.37 0 0 0 24.72 0v-23.2z" fill="#ebebeb"/><path d="M131.1 145.12a14.28 14.28 0 0 1 10.2 4.45 14.4 14.4 0 0 1 3.97 9.72c.05 7.86.05 15.71 0 23.57a14.33 14.33 0 0 1-14.91 14.16 14.36 14.36 0 0 1-13.8-14.16c-.05-7.86-.05-15.71 0-23.57a14.3 14.3 0 0 1 4.08-9.84 14.42 14.42 0 0 1 10.1-4.33h.36zm-.32 4a10.21 10.21 0 0 0-7.28 3.12 10.41 10.41 0 0 0-2.94 7.1c-.05 7.82-.05 15.65 0 23.47a10.76 10.76 0 0 0 .96 4.24 10.42 10.42 0 0 0 9 5.97 10.38 10.38 0 0 0 10.67-9.03c.05-.4.08-.79.09-1.18.05-7.83.05-15.65 0-23.47a10.21 10.21 0 0 0-2.86-7.01 10.42 10.42 0 0 0-7.37-3.21h-.27z" fill="#3f6873" fill-rule="nonzero"/><path d="M170.65 99.54A40.16 40.16 0 0 0 130.5 59.4a40.16 40.16 0 0 0-40.14 40.14v34.91a40.16 40.16 0 0 0 40.14 40.15 40.16 40.16 0 0 0 40.15-40.14V99.54z" fill="#e6e6e6"/><path d="M130.76 59.4h.52l.26.01.25.01h.26l.26.02.25.01.26.02.26.01.25.02.26.02.25.02.26.02.25.02.25.03.26.02.25.03.25.03.25.03.25.04.25.03.25.04.25.03.25.04.5.08.24.05.25.04.25.05.24.05.25.05.24.05.25.05.24.05.24.06.25.06.24.05.24.06.24.06.24.07.24.06.24.07.24.06.23.07.24.07.24.07.23.08.47.15.24.07.23.08.23.08.24.08.23.08.23.09.23.08.23.09.23.09.22.09.23.09.23.09.23.1.22.09.23.1.22.09.22.1.23.1.22.1.44.2.44.22.22.1.21.11.22.11.22.12.21.1.22.12.42.23.21.12.22.12.2.12.22.12.2.13.21.12.42.25.4.26.21.13.2.13.2.13.2.13.2.14.2.14.2.13.2.14.2.14.2.14.2.14.19.15.2.14.19.14.19.15.19.15.19.15.19.15.19.15.18.15.19.15.19.16.18.15.18.16.19.15.18.16.18.16.18.16.18.16.35.33.18.16.17.17.18.17.17.16.17.17.17.17.17.17.17.18.17.17.16.17.17.18.17.17.16.18.16.18.16.18.16.18.16.18.16.18.16.18.15.18.16.19.15.18.16.19.15.19.15.19.15.19.15.19.14.19.15.19.14.2.15.18.14.2.14.2.28.39.14.2.14.2.14.2.26.4.14.2.13.2.13.2.13.21.12.2.26.42.12.2.12.22.12.2.12.22.12.21.12.21.23.43.12.21.1.22.12.21.11.22.1.22.12.22.2.44.22.44.1.22.1.22.1.23.1.22.09.22.1.23.09.23.09.22.09.23.09.23.09.23.08.23.09.23.08.23.08.23.08.23.08.23.08.24.08.23.07.24.08.23.07.24.07.23.07.24.07.24.07.24.06.24.07.24.06.24.06.24.06.24.06.24.06.24.05.25.05.24.06.24.05.25.05.24.05.25.04.24.05.25.04.25.04.25.04.24.04.25.04.25.03.25.04.25.03.25.03.25.03.26.03.25.03.25.02.25.02.26.03.25.02.26.02.25.01.26.02.25.01.26.01.26.01.25.01.26.01.26v.26l.01.25v36.47l-.02.26v.26l-.02.25v.26l-.02.26-.02.25-.01.26-.02.25-.02.26-.03.25-.02.25-.02.26-.03.25-.03.25-.03.25-.03.25-.03.26-.04.25-.03.25-.04.25-.04.24-.04.25-.04.25-.04.25-.05.24-.04.25-.05.25-.05.24-.05.25-.06.24-.05.24-.05.25-.06.24-.06.24-.06.24-.06.24-.06.24-.07.24-.06.24-.07.24-.07.24-.07.24-.07.23-.07.24-.08.23-.07.24-.08.23-.08.24-.08.23-.08.23-.08.23-.08.23-.09.23-.09.23-.08.23-.1.23-.08.23-.1.22-.09.23-.1.23-.09.22-.1.22-.1.23-.1.22-.1.22-.1.22-.1.22-.1.22-.11.22-.11.22-.11.22-.11.21-.11.22-.11.22-.12.21-.11.21-.12.22-.12.2-.12.22-.12.21-.12.21-.12.2-.13.22-.12.2-.13.21-.13.2-.12.21-.13.2-.14.2-.13.21-.13.2-.14.2-.13.2-.14.2-.14.2-.14.2-.14.2-.14.19-.14.2-.14.19-.15.19-.15.2-.14.18-.15.2-.15.18-.15.19-.15.19-.16.18-.15.19-.16.18-.15.19-.16.18-.16.18-.16.18-.16.18-.16.18-.16.18-.16.18-.17.17-.17.18-.16.17-.17.17-.17.17-.17.18-.17.17-.17.16-.17.17-.18.17-.17.16-.18.17-.18.16-.17.17-.18.16-.18.16-.18.16-.18.16-.19.15-.18.16-.18.15-.19.16-.19.15-.18.15-.2.15-.18.15-.2.15-.18.15-.2.14-.19.15-.2.14-.18.15-.2.14-.2.14-.2.14-.2.14-.2.13-.2.14-.2.13-.2.14-.2.13-.2.13-.2.13-.2.13-.21.13-.21.12-.2.13-.21.12-.21.12-.21.13-.21.12-.22.12-.2.11-.22.12-.21.12-.22.11-.21.11-.22.11-.22.11-.21.11-.22.11-.22.1-.22.11-.22.1-.22.1-.22.11-.23.1-.22.1-.22.1-.23.1-.22.09-.23.09-.23.1-.23.08-.22.1-.23.08-.23.09-.23.08-.23.09-.23.08-.24.08-.23.08-.23.08-.24.07-.23.08-.24.07-.23.08-.24.07-.24.07-.23.07-.24.06-.24.07-.24.06-.24.06-.24.06-.24.07-.25.05-.24.06-.24.06-.24.05-.25.05-.24.05-.25.05-.24.05-.25.05-.25.04-.24.05-.25.04-.25.04-.25.04-.25.03-.25.04-.25.03-.25.04-.25.03-.25.03-.25.02-.26.03-.25.03-.25.02-.26.02-.25.02-.26.02-.25.02-.26.01-.25.02h-.26l-.26.02h-.26l-.25.02H129.47l-.26-.01-.26-.01-.26-.01-.25-.01-.26-.02-.26-.01-.25-.02-.26-.02-.25-.02-.25-.02-.26-.02-.25-.03-.25-.02-.26-.03-.25-.03-.25-.03-.25-.04-.25-.03-.25-.04-.25-.03-.25-.04-.25-.04-.24-.04-.25-.05-.25-.04-.24-.05-.25-.05-.25-.05-.24-.05-.24-.05-.25-.06-.24-.05-.24-.06-.25-.05-.24-.06-.24-.07-.24-.06-.24-.06-.24-.07-.23-.06-.24-.07-.24-.07-.24-.07-.23-.08-.24-.07-.23-.08-.24-.07-.23-.08-.23-.08-.23-.08-.24-.08-.23-.09-.23-.08-.23-.1-.22-.08-.23-.09-.23-.09-.23-.09-.22-.1-.23-.09-.22-.1-.23-.1-.22-.09-.22-.1-.23-.1-.22-.1-.22-.1-.22-.11-.21-.1-.22-.12-.22-.1-.22-.12-.21-.1-.22-.12-.21-.11-.22-.12-.21-.12-.21-.11-.21-.12-.21-.12-.21-.12-.21-.13-.21-.12-.2-.13-.21-.12-.21-.13-.2-.13-.2-.13-.21-.13-.2-.13-.2-.14-.2-.13-.2-.14-.2-.13-.2-.14-.2-.14-.2-.14-.2-.14-.19-.15-.2-.14-.18-.15-.2-.14-.19-.15-.19-.15-.19-.15-.18-.15-.2-.15-.18-.15-.18-.16-.19-.15-.18-.16-.18-.15-.19-.16-.18-.16-.18-.16-.17-.16-.18-.17-.18-.16-.17-.17-.18-.16-.17-.17-.18-.17-.17-.16-.17-.17-.17-.18-.17-.17-.17-.17-.16-.17-.17-.18-.16-.17-.17-.18-.16-.18-.16-.18-.16-.18-.16-.18-.16-.18-.16-.18-.15-.19-.16-.18-.15-.19-.15-.18-.16-.19-.15-.19-.15-.19-.14-.19-.15-.19-.15-.19-.14-.2-.15-.19-.14-.2-.14-.19-.14-.2-.14-.19-.14-.2-.14-.2-.13-.2-.14-.2-.13-.2-.13-.2-.13-.2-.13-.2-.13-.21-.13-.2-.13-.22-.12-.2-.13-.21-.12-.21-.12-.21-.12-.21-.12-.21-.12-.21-.11-.22-.12-.21-.11-.21-.12-.22-.1-.22-.12-.21-.1-.22-.12-.22-.1-.22-.1-.22-.11-.22-.1-.22-.1-.22-.1-.22-.1-.23-.1-.22-.1-.22-.09-.23-.1-.23-.09-.22-.09-.23-.08-.23-.1-.23-.08-.23-.08-.23-.09-.23-.08-.23-.08-.23-.08-.23-.08-.24-.08-.23-.07-.24-.08-.23-.07-.24-.07-.23-.07-.24-.07-.24-.07-.24-.06-.24-.06-.24-.07-.24-.06-.24-.06-.24-.06-.24-.05-.24-.06-.25-.05-.24-.05-.24-.06-.25-.05-.24-.04-.25-.05-.25-.04-.24-.05-.25-.04-.25-.04-.25-.04-.25-.04-.24-.03-.25-.04-.25-.03-.25-.03-.26-.03-.25-.03-.25-.03-.25-.02-.26-.02-.25-.03-.25-.02-.26-.01-.25-.02-.26-.02-.25-.01-.26-.01-.26-.01-.25-.01-.26v-.26l-.02-.26V98.77l.01-.26v-.26l.02-.26v-.25l.02-.26.01-.26.02-.25.02-.26.01-.25.02-.26.03-.25.02-.26.02-.25.03-.25.03-.25.03-.26.03-.25.03-.25.04-.25.03-.25.04-.25.04-.25.04-.24.04-.25.05-.25.04-.25.05-.24.04-.25.05-.24.06-.25.05-.24.05-.24.06-.25.05-.24.06-.24.06-.24.06-.24.07-.24.06-.24.06-.24.07-.24.07-.24.07-.24.07-.23.07-.24.08-.23.07-.24.08-.23.08-.24.08-.23.08-.23.08-.23.09-.23.08-.23.09-.23.09-.23.08-.23.1-.23.09-.22.09-.23.1-.23.09-.22.1-.22.1-.23.1-.22.1-.22.1-.22.1-.22.1-.22.12-.22.1-.22.11-.22.11-.22.11-.21.12-.22.11-.21.12-.21.11-.22.12-.21.12-.21.12-.21.12-.21.12-.21.13-.2.12-.22.13-.2.13-.2.12-.21.14-.2.13-.21.13-.2.13-.2.14-.2.13-.2.14-.2.14-.2.14-.2.14-.2.14-.2.14-.19.15-.19.14-.2.15-.18.15-.2.14-.18.15-.2.15-.18.16-.19.15-.19.15-.18.16-.19.15-.18.16-.18.16-.18.16-.18.16-.18.16-.18.16-.18.17-.18.16-.17.17-.18.16-.17.17-.17.17-.18.17-.17.17-.17.17-.17.18-.16.17-.17.18-.17.17-.16.18-.16.18-.17.17-.16.18-.16.18-.16.19-.16.18-.15.18-.16.19-.15.18-.16.19-.15.19-.15.18-.15.2-.15.18-.15.2-.15.19-.15.19-.14.2-.14.19-.15.2-.14.19-.14.2-.14.2-.14.2-.13.2-.14.2-.14.2-.13.2-.13.2-.13.2-.13.2-.13.22-.13.2-.12.2-.13.22-.12.2-.13.22-.12.2-.12.22-.12.21-.12.21-.11.22-.12.21-.11.22-.11.21-.12.22-.1.22-.11.22-.11.21-.1.22-.11.22-.1.22-.11.23-.1.22-.1.22-.1.23-.1.22-.1.23-.09.22-.1.23-.08.23-.1.23-.08.22-.1.23-.08.23-.08.23-.09.24-.08.23-.08.23-.08.23-.08.24-.07.23-.08.24-.07.23-.08.24-.07.24-.07.24-.07.23-.06.24-.07.24-.06.24-.07.24-.06.24-.06.25-.05.24-.06.24-.06.25-.05.24-.05.24-.05.25-.05.25-.05.24-.05.25-.04.25-.05.24-.04.25-.04.25-.04.25-.03.25-.04.25-.03.25-.04.25-.03.25-.03.26-.03.25-.02.25-.03.26-.02.25-.02.25-.02.26-.02.25-.02.26-.01.26-.02.25-.01.26-.01.26-.01h.26l.25-.01h.26l.26-.01h.52zm-.5 4h-.46l-.23.01h-.24l-.23.02h-.23l-.23.02h-.23l-.23.02-.23.02-.23.02-.23.01-.23.02-.23.02-.23.03-.22.02-.23.03-.23.02-.22.03-.23.03-.23.03-.22.03-.22.04-.23.03-.22.04-.22.04-.23.03-.22.05-.22.04-.22.04-.22.04-.22.05-.22.05-.22.05-.22.05-.22.05-.21.05-.22.05-.22.06-.21.05-.22.06-.21.06-.22.06-.21.06-.22.07-.21.06-.21.07-.21.06-.21.07-.21.07-.21.07-.21.07-.21.07-.21.08-.2.07-.22.08-.2.08-.2.08-.21.08-.2.08-.21.08-.2.09-.2.08-.21.09-.2.08-.2.1-.2.08-.2.1-.2.09-.2.09-.2.1-.2.09-.2.1-.19.1-.2.1-.19.1-.2.1-.18.1-.2.1-.19.1-.19.11-.19.11-.19.1-.19.12-.19.1-.18.12-.2.11-.18.12-.18.11-.19.12-.18.11-.18.12-.18.12-.19.12-.18.12-.18.13-.18.12-.17.12-.18.13-.18.13-.17.12-.18.13-.17.13-.18.13-.17.13-.17.14-.17.13-.17.14-.17.13-.17.14-.17.14-.17.14-.16.13-.17.15-.16.14-.17.14-.16.14-.16.15-.16.14-.16.15-.16.15-.16.15-.16.15-.16.15-.15.15-.16.15-.15.15-.15.16-.16.15-.15.16-.15.15-.15.16-.14.16-.15.16-.15.16-.14.16-.15.16-.14.16-.15.17-.14.16-.14.17-.14.16-.14.17-.13.17-.14.17-.14.17-.13.17-.14.17-.13.17-.13.17-.13.18-.13.17-.13.18-.13.17-.12.18-.13.18-.12.18-.13.18-.12.18-.12.18-.12.18-.12.18-.12.18-.12.19-.11.18-.12.19-.1.18-.12.19-.11.19-.11.18-.11.2-.11.18-.1.2-.12.18-.1.2-.1.19-.1.19-.1.2-.1.19-.1.2-.1.19-.1.2-.1.2-.1.2-.09.19-.09.2-.09.2-.09.2-.09.2-.09.2-.08.2-.09.2-.08.2-.08.21-.08.2-.09.21-.07.2-.08.22-.08.2-.07.21-.08.2-.07.22-.07.2-.07.22-.07.2-.07.22-.07.21-.06.21-.07.22-.06.2-.06.22-.06.22-.06.21-.06.22-.05.21-.06.22-.05.22-.05.21-.06.22-.05.22-.04.22-.05.22-.05.22-.04.22-.04.22-.05.22-.04.23-.04.22-.03.22-.04.22-.04.23-.03.22-.03.23-.03.22-.03.23-.03.22-.03.23-.02.23-.03.23-.02.22-.02.23-.02.23-.02.23-.01.23-.02.23-.01.23-.02.23v.23l-.02.23v.24l-.01.23v.23l-.01.24V135.39l.02.23v.23l.01.24.01.23.02.23.01.23.02.23.01.23.02.23.02.23.02.22.02.23.03.23.02.23.03.22.03.23.03.23.03.22.03.23.03.22.04.22.04.23.03.22.04.22.04.23.05.22.04.22.04.22.05.22.05.22.1.44.04.21.06.22.05.22.06.22.05.21.06.22.06.21.06.22.06.21.06.21.07.22.13.42.07.21.07.21.14.42.07.21.08.2.07.22.08.2.08.2.07.22.17.4.08.2.08.21.09.2.08.2.18.41.09.2.1.2.18.4.19.4.1.19.1.2.1.19.1.2.1.19.1.2.1.18.1.2.11.19.1.19.12.19.1.18.12.2.1.18.12.19.11.18.12.19.11.18.12.19.12.18.12.18.12.18.12.18.25.36.25.36.25.35.13.18.13.17.13.18.13.17.13.17.14.17.27.34.14.17.13.17.14.17.14.16.14.17.14.16.15.17.14.16.15.16.14.16.3.32.14.16.15.16.15.15.15.16.16.15.15.16.15.15.16.15.15.15.16.15.16.15.16.15.32.3.16.14.16.15.16.14.16.14.17.14.17.14.16.14.17.14.17.14.17.14.34.27.17.13.17.13.17.14.18.13.17.13.18.13.17.12.18.13.18.12.17.13.36.25.18.12.37.24.18.11.18.12.19.12.18.11.19.12.19.1.18.12.2.11.18.11.19.1.19.12.2.1.18.1.2.11.19.1.2.1.19.1.2.1.19.1.2.1.2.1.19.09.2.1.2.09.2.09.2.09.4.17.2.09.2.08.2.09.21.08.41.16.2.08.21.08.21.08.2.07.22.08.2.07.43.14.2.07.22.07.42.13.21.06.22.07.21.06.22.06.21.06.22.05.21.06.22.06.22.05.21.05.22.05.44.1.22.05.22.04.22.05.22.04.22.04.22.04.23.04.22.04.22.04.23.03.22.04.23.03.22.03.23.03.22.03.23.02.23.03.22.02.23.02.23.03.23.02.23.01.23.02.23.02h.23l.23.02.23.01.23.01.23.01h.24l.23.01h1.64l.23-.01h.23l.23-.02h.23l.23-.02.23-.01.23-.02.23-.02.23-.01.23-.02.23-.03.23-.02.23-.02.22-.03.23-.02.23-.03.22-.03.23-.03.22-.03.23-.04.22-.03.22-.04.23-.04.22-.04.22-.04.22-.04.22-.04.22-.05.22-.04.22-.05.22-.05.22-.05.22-.05.22-.05.21-.05.22-.06.22-.06.21-.05.22-.06.21-.06.22-.06.2-.07.22-.06.21-.07.22-.06.2-.07.22-.07.2-.07.22-.07.2-.07.21-.08.21-.07.2-.08.22-.08.2-.08.2-.08.21-.08.2-.08.2-.09.21-.08.2-.09.2-.09.2-.08.2-.1.2-.08.2-.1.2-.1.2-.09.2-.1.2-.09.19-.1.2-.1.19-.1.2-.1.19-.1.19-.1.2-.1.18-.11.2-.11.18-.11.19-.11.19-.11.19-.11.18-.11.19-.12.18-.11.19-.12.18-.12.19-.11.18-.12.18-.12.18-.12.18-.13.18-.12.18-.13.17-.12.18-.13.18-.12.17-.13.18-.13.17-.13.17-.14.18-.13.17-.13.17-.14.17-.13.17-.14.16-.14.17-.14.17-.14.16-.14.17-.14.16-.14.16-.14.17-.15.16-.14.16-.15.16-.15.15-.15.16-.15.16-.15.15-.15.16-.15.15-.15.16-.16.15-.15.15-.16.15-.15.15-.16.15-.16.14-.16.15-.16.15-.16.14-.16.15-.16.14-.17.14-.16.14-.17.14-.16.14-.17.14-.17.13-.17.14-.17.13-.17.14-.17.13-.17.13-.17.13-.18.13-.17.13-.18.13-.17.12-.18.13-.18.12-.18.13-.18.12-.18.12-.18.12-.18.12-.18.12-.18.12-.19.11-.18.12-.19.11-.18.11-.19.12-.19.1-.19.12-.18.1-.2.11-.18.1-.2.11-.19.1-.19.1-.2.11-.19.1-.19.1-.2.1-.2.1-.19.09-.2.1-.2.09-.2.1-.19.08-.2.1-.2.08-.2.09-.2.08-.2.09-.2.08-.21.09-.2.08-.21.08-.2.08-.21.07-.2.08-.21.08-.21.07-.21.07-.2.08-.22.07-.2.07-.22.06-.21.07-.21.06-.21.07-.22.06-.21.06-.21.06-.22.06-.21.06-.22.06-.21.05-.22.06-.22.05-.22.05-.21.05-.22.05-.22.04-.22.05-.22.04-.22.05-.22.04-.22.04-.23.04-.22.04-.22.03-.23.04-.22.03-.22.03-.23.03-.22.03-.23.03-.23.03-.22.02-.23.03-.23.02-.23.02-.22.02-.23.02-.23.02-.23.01-.23.02-.23v-.23l.02-.23v-.24l.02-.23v-.46l.01-.24V98.61l-.01-.23-.01-.24-.01-.23-.01-.23-.01-.23-.02-.23-.01-.23-.02-.23-.02-.23-.02-.23-.02-.23-.02-.22-.03-.23-.02-.23-.03-.23-.03-.22-.03-.23-.03-.22-.03-.23-.03-.22-.04-.23-.03-.22-.04-.22-.04-.22-.04-.23-.04-.22-.05-.22-.04-.22-.05-.22-.04-.22-.05-.22-.05-.22-.05-.22-.05-.21-.06-.22-.05-.22-.06-.21-.06-.22-.06-.21-.06-.22-.06-.21-.06-.21-.07-.22-.06-.21-.07-.21-.06-.21-.07-.21-.07-.21-.08-.21-.07-.21-.07-.21-.08-.2-.07-.21-.08-.21-.08-.2-.08-.21-.08-.2-.09-.21-.08-.2-.09-.2-.08-.21-.09-.2-.09-.2-.09-.2-.09-.2-.1-.2-.08-.2-.1-.2-.1-.2-.1-.2-.09-.19-.1-.2-.1-.19-.1-.19-.1-.2-.1-.18-.11-.2-.1-.19-.12-.19-.1-.19-.11-.19-.11-.18-.12-.2-.1-.18-.12-.18-.12-.19-.11-.18-.12-.19-.12-.18-.12-.18-.12-.18-.12-.18-.12-.18-.13-.18-.12-.18-.13-.18-.12-.18-.13-.17-.13-.18-.13-.17-.13-.18-.13-.17-.13-.17-.14-.17-.13-.17-.14-.17-.13-.17-.14-.17-.14-.17-.14-.16-.14-.17-.14-.16-.15-.17-.14-.16-.14-.16-.15-.16-.15-.16-.14-.16-.15-.16-.15-.16-.15-.15-.15-.16-.15-.15-.16-.16-.15-.15-.16-.15-.15-.15-.16-.15-.16-.15-.15-.15-.16-.15-.16-.15-.16-.14-.17-.15-.16-.14-.16-.14-.17-.14-.16-.15-.17-.13-.17-.14-.16-.14-.17-.14-.17-.13-.17-.14-.17-.13-.18-.14-.17-.13-.17-.13-.18-.13-.17-.13-.18-.12-.18-.13-.17-.13-.18-.12-.18-.12-.18-.13-.18-.12-.18-.12-.18-.12-.19-.12-.18-.11-.19-.12-.18-.11-.19-.12-.18-.11-.2-.11-.18-.11-.19-.11-.19-.11-.19-.1-.19-.11-.2-.1-.18-.11-.2-.1-.19-.1-.2-.1-.19-.1-.2-.1-.2-.1-.19-.1-.2-.1-.2-.08-.2-.1-.2-.09-.2-.09-.2-.09-.2-.08-.2-.09-.2-.08-.2-.09-.2-.08-.21-.08-.2-.08-.21-.08-.21-.08-.2-.08-.22-.07-.2-.08-.21-.07-.21-.07-.21-.07-.21-.07-.21-.07-.22-.06-.2-.07-.22-.06-.21-.07-.22-.06-.21-.06-.22-.06-.21-.06-.22-.05-.22-.06-.21-.05-.22-.05-.22-.05-.22-.05-.22-.05-.22-.05-.22-.05-.22-.04-.22-.04-.22-.04-.22-.05-.22-.03-.23-.04-.22-.04-.22-.03-.23-.04-.22-.03-.23-.03-.22-.03-.23-.03-.23-.02-.22-.03-.23-.02-.23-.03-.23-.02-.23-.02-.23-.01-.23-.02-.23-.02-.23-.01-.23-.01-.23-.01-.23-.01-.23-.01h-.23l-.24-.01h-.23l-.23-.01h-.47z" fill="#3f6873"/><path d="M141.18 152.78a11.69 11.69 0 0 1-23.37-.07h23.37v.07z" fill="#fff"/><path d="M141.3 151.21l.12.02a1.51 1.51 0 0 1 1.26 1.36v.54a13.14 13.14 0 0 1-10.37 12.46 13.27 13.27 0 0 1-8.67-1.07 13.25 13.25 0 0 1-7.32-11.64l.01-.4a1.51 1.51 0 0 1 1.25-1.25c.1-.02.13-.02.23-.02 7.83 0 15.67-.3 23.5 0zm-21.88 3a10.11 10.11 0 0 0 3.99 6.66 10.18 10.18 0 0 0 16.16-6.66h-20.15z" fill="#3f6873" fill-rule="nonzero"/><path d="M90.99 102.6v32.85c0 5.41 1.05 10.57 2.97 15.29-3.19-1.67-9.07-5.88-8.64-14.06-7.25-3.13-6.57-7.11-6.34-11.3-7.35-5.11-19.45-21.85-4.23-41.86-2.2-18.94 2.16-30.6 19.71-33.14 0 0 9.55-30.15 43.48-13.72 20.86-4.98 42.5 7.92 42.8 30.48 17.87 11.68 12.95 37.83 3.12 46.48 4.24 13.45-.52 23.28-5.22 24.94.69 7.86-7.82 16.8-13.23 15.75a40.44 40.44 0 0 0 4.62-18.86v-34.9c0-.87-.02-1.72-.08-2.57-1.72.58-31.16 9.82-54.31-18.29 0 0-11.4 20.45-24.65 22.9z" fill="#285b68"/><path d="M123.34 119.2c0-7.24-5.88-13.12-13.12-13.12h-8.37a13.13 13.13 0 0 0 0 26.24h8.37c7.24 0 13.12-5.88 13.12-13.12zM165.53 119.2c0-7.24-5.88-13.12-13.12-13.12h-8.37a13.13 13.13 0 0 0 0 26.24h8.37c7.24 0 13.12-5.88 13.12-13.12z" fill="#fff"/><path d="M118.7 96.03c.12.02.23.03.35.07a1.52 1.52 0 0 1 1.03 1.3 1.5 1.5 0 0 1-1.26 1.6l-.24.03H95.13c-.11 0-.14 0-.24-.02a1.52 1.52 0 0 1-1.1-.8 1.51 1.51 0 0 1 .27-1.74 1.52 1.52 0 0 1 1.06-.44c7.86 0 15.73-.3 23.58 0zM158.7 96.03c.12.02.23.03.35.07a1.51 1.51 0 0 1 .6 2.49 1.52 1.52 0 0 1-.83.42l-.24.02h-23.46c-.1 0-.13 0-.23-.02a1.52 1.52 0 0 1-1.25-1.72 1.52 1.52 0 0 1 .42-.83 1.52 1.52 0 0 1 1.06-.43c7.86 0 15.73-.3 23.58 0z" fill="#3f6873" fill-rule="nonzero"/><path d="M176.05 210.88c-1.85 1.38-4.03 2.7-5.99 3.93H89.21c-1.95-1.23-4.32-2.55-6.17-3.93h93.01zM177.54 200.49c.93 1.26 2.1 2.55 2.9 3.9h-99.5c.8-1.35 2.02-2.66 2.95-3.93l93.65.03z" fill="#68bad9"/><path d="M169.14 110.97a11.7 11.7 0 0 1-.08 23.37v-23.37h.08z" fill="#f2f2f2" stroke="#3f6873" stroke-width="3" stroke-linecap="round" stroke-linejoin="round"/><path d="M125.14 121.7a15.07 15.07 0 0 1-14.73 12.62c-2.91.02-5.83.02-8.75 0a15 15 0 0 1-9.42-3.46 15.23 15.23 0 0 1-4.94-7.52 15.2 15.2 0 0 1 3.48-14.44 15.2 15.2 0 0 1 10.88-4.82c2.92-.02 5.84-.02 8.75 0a15.03 15.03 0 0 1 10.88 4.82 15.16 15.16 0 0 1 3.85 7.8h3.98a15.03 15.03 0 0 1 3.85-7.8 15.2 15.2 0 0 1 10.88-4.82c2.91-.02 5.83-.02 8.75 0a15.02 15.02 0 0 1 10.88 4.82 15.16 15.16 0 0 1 3.48 14.44 15.1 15.1 0 0 1-14.36 10.98c-2.92.02-5.84.02-8.75 0a15.06 15.06 0 0 1-12.34-6.67 15.12 15.12 0 0 1-2.39-5.95h-3.98zm-23.28-13.62a11.05 11.05 0 0 0-8.06 3.45 11.17 11.17 0 0 0-2.61 10.85 11.08 11.08 0 0 0 6.59 7.17 11.04 11.04 0 0 0 3.93.77c2.88.02 5.77.02 8.65 0a11.06 11.06 0 0 0 9.08-4.9 11.1 11.1 0 0 0-9.08-17.34c-2.83-.02-5.67 0-8.5 0zm42.19 0a11.07 11.07 0 0 0-10.3 6.92 11.07 11.07 0 0 0 .92 10.2 11.24 11.24 0 0 0 9.23 5.12c2.88.02 5.77.02 8.65 0a11.04 11.04 0 0 0 9-4.8 11.07 11.07 0 0 0-1-13.9 11.19 11.19 0 0 0-8-3.54c-2.83-.02-5.67 0-8.5 0z" fill="#3f6873"/></svg>