<?xml version="1.0" encoding="utf-8"?>
<!-- Generator: Adobe Illustrator 16.0.0, SVG Export Plug-In . SVG Version: 6.00 Build 0)  -->
<!DOCTYPE svg PUBLIC "-//W3C//DTD SVG 1.1//EN" "http://www.w3.org/Graphics/SVG/1.1/DTD/svg11.dtd">
<svg version="1.1" id="Layer_1" xmlns="http://www.w3.org/2000/svg" xmlns:xlink="http://www.w3.org/1999/xlink" x="0px" y="0px"
	 width="607.22px" height="607.22px" viewBox="2.39 15.89 607.22 607.22" enable-background="new 2.39 15.89 607.22 607.22"
	 xml:space="preserve">
<g>
	<path d="M609.61,66.45c0-27.85-22.71-50.56-50.56-50.56H52.95C25.1,15.89,2.39,38.6,2.39,66.45v123.71
		c0,12.91,4.9,24.74,13.03,33.71c-8.13,8.96-13.03,20.8-13.03,33.83v123.71c0,12.91,4.9,24.74,13.03,33.71
		c-8.13,8.96-13.03,20.68-13.03,33.71v123.71c0,27.85,22.71,50.56,50.56,50.56h505.98c27.85,0,50.56-22.71,50.56-50.56V448.83
		c0-12.91-4.9-24.74-13.03-33.71c8.01-8.96,13.03-20.8,13.03-33.71V257.7c0-12.91-4.9-24.74-13.03-33.71
		c8.01-8.96,13.03-20.8,13.03-33.71V66.45H609.61z M575.9,572.55c0,9.32-7.53,16.85-16.85,16.85H52.95
		c-9.32,0-16.85-7.53-16.85-16.85V448.83c0-9.32,7.53-16.85,16.85-16.85h505.98c9.32,0,16.85,7.53,16.85,16.85v123.71H575.9z
		 M575.9,381.3c0,9.32-7.53,16.85-16.85,16.85H52.95c-9.32,0-16.85-7.53-16.85-16.85V257.7c0-9.32,7.53-16.85,16.85-16.85h505.98
		c9.32,0,16.85,7.53,16.85,16.85v123.6H575.9z M575.9,190.17c0,9.32-7.53,16.85-16.85,16.85H52.95c-9.32,0-16.85-7.53-16.85-16.85
		V66.45c0-9.32,7.53-16.85,16.85-16.85h505.98c9.32,0,16.85,7.53,16.85,16.85v123.71H575.9z"/>
	<path d="M95.15,81.51c-9.32,0-16.85,7.53-16.85,16.85v59.77c0,9.32,7.53,16.85,16.85,16.85c9.32,0,16.85-7.53,16.85-16.85V98.37
		C112,89.16,104.47,81.51,95.15,81.51z"/>
	<path d="M164.24,81.51c-9.32,0-16.85,7.53-16.85,16.85v59.77c0,9.32,7.53,16.85,16.85,16.85c9.32,0,16.85-7.53,16.85-16.85V98.37
		C181.09,89.16,173.56,81.51,164.24,81.51z"/>
	<path d="M233.33,81.51c-9.32,0-16.85,7.53-16.85,16.85v59.77c0,9.32,7.53,16.85,16.85,16.85c9.32,0,16.85-7.53,16.85-16.85V98.37
		C250.18,89.16,242.65,81.51,233.33,81.51z"/>
	<path d="M516.85,111.52H370.43c-9.32,0-16.85,7.53-16.85,16.85c0,9.32,7.53,16.85,16.85,16.85h146.43
		c9.32,0,16.85-7.53,16.85-16.85C533.71,119.05,526.18,111.52,516.85,111.52z"/>
	<path d="M95.15,272.76c-9.32,0-16.85,7.53-16.85,16.85v59.77c0,9.32,7.53,16.85,16.85,16.85c9.32,0,16.85-7.53,16.85-16.85v-59.77
		C112,280.29,104.47,272.76,95.15,272.76z"/>
	<path d="M164.24,272.76c-9.32,0-16.85,7.53-16.85,16.85v59.77c0,9.32,7.53,16.85,16.85,16.85c9.32,0,16.85-7.53,16.85-16.85v-59.77
		C181.09,280.29,173.56,272.76,164.24,272.76z"/>
	<path d="M233.33,272.76c-9.32,0-16.85,7.53-16.85,16.85v59.77c0,9.32,7.53,16.85,16.85,16.85c9.32,0,16.85-7.53,16.85-16.85v-59.77
		C250.18,280.29,242.65,272.76,233.33,272.76z"/>
	<path d="M516.85,302.65H370.43c-9.32,0-16.85,7.53-16.85,16.85s7.53,16.85,16.85,16.85h146.43c9.32,0,16.85-7.53,16.85-16.85
		S526.18,302.65,516.85,302.65z"/>
	<path d="M95.15,463.89c-9.32,0-16.85,7.53-16.85,16.85v59.77c0,9.32,7.53,16.85,16.85,16.85c9.32,0,16.85-7.53,16.85-16.85v-59.77
		C112,471.42,104.47,463.89,95.15,463.89z"/>
	<path d="M164.24,463.89c-9.32,0-16.85,7.53-16.85,16.85v59.77c0,9.32,7.53,16.85,16.85,16.85c9.32,0,16.85-7.53,16.85-16.85v-59.77
		C181.09,471.42,173.56,463.89,164.24,463.89z"/>
	<path d="M233.33,463.89c-9.32,0-16.85,7.53-16.85,16.85v59.77c0,9.32,7.53,16.85,16.85,16.85c9.32,0,16.85-7.53,16.85-16.85v-59.77
		C250.18,471.42,242.65,463.89,233.33,463.89z"/>
	<path d="M516.85,493.78H370.43c-9.32,0-16.85,7.53-16.85,16.85c0,9.32,7.53,16.85,16.85,16.85h146.43
		c9.32,0,16.85-7.53,16.85-16.85C533.71,501.31,526.18,493.78,516.85,493.78z"/>
</g>
</svg>
