<?xml version="1.0" encoding="utf-8"?>
<!-- Generator: Adobe Illustrator 16.0.0, SVG Export Plug-In . SVG Version: 6.00 Build 0)  -->
<!DOCTYPE svg PUBLIC "-//W3C//DTD SVG 1.1//EN" "http://www.w3.org/Graphics/SVG/1.1/DTD/svg11.dtd">
<svg version="1.1" id="Layer_1" xmlns="http://www.w3.org/2000/svg" xmlns:xlink="http://www.w3.org/1999/xlink" x="0px" y="0px"
	 width="611.99px" height="501.15px" viewBox="30.6 428.33 611.99 501.15" enable-background="new 30.6 428.33 611.99 501.15"
	 xml:space="preserve">
<g display="none">
	<rect x="-1824.94" y="-1615.12" display="inline" width="8751.01" height="6204.35"/>
</g>
<g>
	<g>
		<path d="M299.03,690.84c0-31.12-25.31-56.42-56.42-56.42c-31.11,0-56.42,25.31-56.42,56.42c0,31.11,25.31,56.42,56.42,56.42
			C273.72,747.26,299.03,721.96,299.03,690.84z M215.92,690.84c0-14.68,12.01-26.69,26.68-26.69s26.69,12.01,26.69,26.69
			c0,14.68-12.01,26.68-26.69,26.68C227.93,717.54,215.92,705.53,215.92,690.84z"/>
		<path d="M430.58,634.42c-31.11,0-56.42,25.31-56.42,56.42c0,31.11,25.31,56.42,56.42,56.42c31.11,0,56.42-25.31,56.42-56.42
			C487,659.74,461.7,634.42,430.58,634.42z M430.58,717.54c-14.68,0-26.68-12.01-26.68-26.68c0-14.68,12.01-26.69,26.68-26.69
			s26.68,12.01,26.68,26.69C457.27,705.53,445.26,717.54,430.58,717.54z"/>
		<path d="M336.59,553.42h15.39v-7.14v-46.19c13.05-5.88,22.16-18.98,22.16-34.22c0-20.73-16.81-37.54-37.54-37.54
			c-20.73,0-37.54,16.81-37.54,37.54c0,15.24,9.1,28.34,22.16,34.22v46.19v7.14H336.59L336.59,553.42z"/>
		<path d="M396.5,766.71H276.68c-26.62,0-48.28,21.66-48.28,48.28s21.65,48.28,48.28,48.28h119.81c26.62,0,48.28-21.65,48.28-48.28
			C444.78,788.38,423.12,766.71,396.5,766.71z M291.05,833.54h-14.37c-10.22,0-18.53-8.31-18.53-18.53s8.31-18.53,18.53-18.53h14.37
			V833.54z M352.39,833.54h-31.61v-37.07h31.61V833.54z M396.5,833.54h-14.36v-37.07h14.36c10.22,0,18.53,8.32,18.53,18.53
			C415.03,825.21,406.73,833.54,396.5,833.54z"/>
		<path d="M583.32,638.51H559.4h-10.33c-1.31-51.07-43.18-92.23-94.55-92.23H351.98v7.14h-15.39H321.2v-7.14H218.67
			c-51.38,0-93.24,41.17-94.55,92.23h-10.33H89.87c-32.68,0-59.27,26.59-59.27,59.27v50.2c0,32.68,26.59,59.27,59.27,59.27h23.92
			h10.33c1.31,51.07,1.38,122.23,94.55,122.23h235.85c89.98,0,93.24-71.16,94.55-122.23h10.33h23.92
			c32.68,0,59.27-26.59,59.27-59.27v-50.2C642.59,665.09,616,638.51,583.32,638.51z M113.79,777.5H89.87
			c-16.23,0-29.52-13.29-29.52-29.52v-50.2c0-16.23,13.29-29.52,29.52-29.52h23.92V777.5z M519.45,804.79
			c0,35.8-5.95,94.93-64.93,94.93H218.67c-66.17,0-64.93-59.13-64.93-94.93V640.96c0-35.8,29.12-64.92,64.93-64.92h235.85
			c35.8,0,64.93,29.12,64.93,64.92V804.79L519.45,804.79z M612.84,747.97c0,16.23-13.29,29.52-29.52,29.52H559.4V668.25h23.92
			c16.24,0,29.52,13.29,29.52,29.52V747.97z"/>
	</g>
</g>
</svg>
