<?xml version="1.0" encoding="utf-8"?>
<!-- Generator: Adobe Illustrator 16.0.0, SVG Export Plug-In . SVG Version: 6.00 Build 0)  -->
<!DOCTYPE svg PUBLIC "-//W3C//DTD SVG 1.1//EN" "http://www.w3.org/Graphics/SVG/1.1/DTD/svg11.dtd">
<svg version="1.1" id="Layer_1" xmlns="http://www.w3.org/2000/svg" xmlns:xlink="http://www.w3.org/1999/xlink" x="0px" y="0px"
	 width="607.22px" height="607.22px" viewBox="2.39 15.89 607.22 607.22" enable-background="new 2.39 15.89 607.22 607.22"
	 xml:space="preserve">
<g>
	<path d="M579.25,15.89H32.75c-16.73,0-30.36,13.63-30.36,30.36v546.5c0,16.73,13.63,30.36,30.36,30.36h546.5
		c16.73,0,30.36-13.63,30.36-30.36V46.25C609.61,29.52,595.98,15.89,579.25,15.89z M548.89,562.39H63.11V137.33h485.78V562.39
		L548.89,562.39z"/>
	<path d="M163.04,432.1c19.96,19.48,37.05,5.98,42.91,0c11.83-11.83,11.83-31.08,0-42.91l-39.21-39.21l39.21-39.21
		c11.83-11.83,11.83-31.08,0-42.91c-11.83-11.83-31.08-11.83-42.91,0l-60.72,60.72c-11.83,11.83-11.83,31.08,0,42.91L163.04,432.1z"
		/>
	<path d="M405.93,432.1c5.98,5.98,27.61,16.61,42.91,0l60.72-60.72c11.83-11.83,11.83-31.08,0-42.91l-60.72-60.72
		c-11.83-11.83-31.08-11.83-42.91,0c-11.83,11.83-11.83,31.08,0,42.91l39.21,39.21l-39.21,39.21
		C394.09,401.02,394.09,420.15,405.93,432.1z"/>
	<path d="M266.08,469.75c3.23,1.08,31.32,9.32,38.37-19.25l60.72-182.17c5.26-15.9-3.35-33.11-19.24-38.37
		c-15.9-5.38-33.11,3.35-38.37,19.24l-60.72,182.17C241.57,447.28,250.18,464.49,266.08,469.75z"/>
</g>
</svg>
