<?xml version="1.0" encoding="utf-8"?>
<!DOCTYPE svg PUBLIC "-//W3C//DTD SVG 1.1//EN" "http://www.w3.org/Graphics/SVG/1.1/DTD/svg11.dtd">
<svg version="1.1" id="Layer_1" xmlns="http://www.w3.org/2000/svg" xmlns:xlink="http://www.w3.org/1999/xlink" x="0px" y="0px"
	  viewBox="42.32 44.1 527.35 550.8" enable-background="new 42.32 44.1 527.35 550.8"
	 xml:space="preserve">
<g>
	<path d="M557.02,246.25h-48.86v-73.24c0-0.2-0.05-0.39-0.06-0.6c-0.03-0.56-0.06-1.13-0.17-1.68c-0.09-0.42-0.24-0.82-0.37-1.22
		c-0.1-0.32-0.17-0.65-0.3-0.96c-0.19-0.46-0.45-0.89-0.69-1.31c-0.13-0.23-0.23-0.48-0.39-0.71c-0.43-0.65-0.94-1.27-1.49-1.82
		L387.53,47.53c-0.04-0.04-0.1-0.07-0.13-0.12c-0.51-0.5-1.06-0.95-1.65-1.34c-0.32-0.21-0.66-0.36-0.98-0.53
		c-0.35-0.18-0.67-0.39-1.04-0.54c-0.4-0.17-0.83-0.26-1.24-0.39c-0.32-0.09-0.62-0.21-0.94-0.28c-0.76-0.16-1.53-0.24-2.3-0.24
		H115.56c-6.47,0-11.71,5.24-11.71,11.72v190.43H54.96c-7,0-12.64,5.69-12.61,12.69l-0.04,179.73c0.01,7.07,5.74,12.67,12.75,12.67
		h48.78v131.84c0,6.48,5.25,11.72,11.71,11.72h380.87c6.47,0,11.72-5.25,11.72-11.72V451.34h48.86c6.98,0,12.66-5.6,12.66-12.67
		V258.94C569.68,251.94,564,246.25,557.02,246.25z M390.96,84.11l77.18,77.19h-77.18V84.11z M127.28,67.54h240.24v105.47
		c0,6.47,5.25,11.72,11.72,11.72h105.47v61.52H127.28V67.54z M414.79,364.25c-21.71-8.51-32.72-22.2-32.72-40.69
		c0-24.63,18.92-41.84,45.97-41.84c12.39,0,26.27,3.71,33.53,7.42l4.69,2.36l-8.8,31.89l-7.06-3.84
		c-3.45-1.87-12.25-4.82-21.22-4.82c-7.48,0-8.05,5.04-8.05,6.56c0,2.58,0,4.44,14.74,10.7c21.17,8.83,31.03,21.85,31.03,41.02
		c0,19.76-12.72,42.88-48.59,42.88c-13.36,0-30.22-4.7-36.97-8.92l-3.62-2.25l5.41-32.94l7.99,4.6c5.31,3.06,17.71,6.5,27.01,6.5
		c6.39,0,10.23-2.98,10.23-7.96C428.34,372.72,428.34,369.71,414.79,364.25z M302.95,364.25c-21.71-8.51-32.73-22.2-32.73-40.69
		c0-24.63,18.9-41.84,45.97-41.84c12.39,0,26.27,3.71,33.54,7.42l4.65,2.36l-8.8,31.89l-7.06-3.84c-3.44-1.87-12.23-4.82-21.22-4.82
		c-7.46,0-8.03,5.04-8.03,6.56c0,2.58,0,4.44,14.74,10.73c21.16,8.8,31.03,21.82,31.03,40.99c0,19.76-12.75,42.88-48.61,42.88
		c-13.33,0-30.21-4.7-36.96-8.92l-3.62-2.25l5.43-32.94l7.98,4.6c5.32,3.06,17.72,6.5,27.01,6.5c6.38,0,10.2-2.98,10.2-7.96
		C316.48,372.72,316.48,369.71,302.95,364.25z M211.81,381.19c6.73,0,14.06-1.67,17.88-3.31l7.33-3.19l5.92,33.19l-4.01,2.17
		c-5.19,2.81-16.01,5.86-30.82,5.86c-38.27,0-63.01-25.62-63.01-65.26c0-41.22,26.29-68.92,65.42-68.92
		c14.04,0,24.58,3.11,29.77,6.05l4.14,2.34l-7.84,33.3l-7.03-3.19c-5.51-2.54-11.56-3.8-17.92-3.8c-17.92,0-28.21,11.88-28.21,32.65
		C183.45,369.47,193.79,381.19,211.81,381.19z M484.72,571.46H127.28V451.34h357.43V571.46L484.72,571.46z"/>
</g>
</svg>
