<?xml version="1.0" encoding="utf-8"?>
<!-- Generator: Adobe Illustrator 16.0.0, SVG Export Plug-In . SVG Version: 6.00 Build 0)  -->
<!DOCTYPE svg PUBLIC "-//W3C//DTD SVG 1.1//EN" "http://www.w3.org/Graphics/SVG/1.1/DTD/svg11.dtd">
<svg version="1.1" id="Layer_1" xmlns="http://www.w3.org/2000/svg" xmlns:xlink="http://www.w3.org/1999/xlink" x="0px" y="0px"
	 width="594.01px" height="514.08px" viewBox="9 62.46 594.01 514.08" enable-background="new 9 62.46 594.01 514.08"
	 xml:space="preserve">
<title>Artboard 4</title>
<path d="M72.83,518.77h134.64v29.99c0.1,15.38,12.59,27.79,27.97,27.79h141.13c15.45,0,27.97-12.52,27.97-27.97v-29.99h134.64
	c35.19-0.03,63.73-28.52,63.83-63.71V126.17c-0.1-35.19-28.64-63.68-63.83-63.71H72.83C37.64,62.49,9.1,90.98,9,126.17v328.64
	C8.96,490.1,37.54,518.73,72.83,518.77L72.83,518.77z M81.21,142.51c0-4.39,3.56-7.96,7.96-7.96h433.66c4.39,0,7.96,3.56,7.96,7.96
	l0,0v296.02c0,4.39-3.56,7.96-7.96,7.96l0,0H89.17c-4.39,0-7.96-3.56-7.96-7.96l0,0V142.51z M209.73,243.8
	c0-20.28,16.44-36.72,36.72-36.72c20.28,0,36.72,16.44,36.72,36.72c0,20.28-16.44,36.72-36.72,36.72
	c-20.18-0.13-36.48-16.54-36.48-36.72H209.73z M328.71,243.8c0-20.28,16.44-36.72,36.72-36.72c20.28,0,36.72,16.44,36.72,36.72
	c0,20.28-16.44,36.72-36.72,36.72c-20.18-0.13-36.48-16.54-36.47-36.72H328.71z M306,325.62c56.98,0,75.15-16.83,85.68-14.26
	s-23.5,62.49-85.68,62.49c-62.18,0-95.84-59.61-85.68-62.18S249.02,325.62,306,325.62z"/>
</svg>
